<?xml version="1.0" standalone="no"?>
<!DOCTYPE svg PUBLIC "-//W3C//DTD SVG 20010904//EN"
 "http://www.w3.org/TR/2001/REC-SVG-20010904/DTD/svg10.dtd">
<svg version="1.0" xmlns="http://www.w3.org/2000/svg"
 width="112.000000pt" height="100.000000pt" viewBox="0 0 112.000000 100.000000"
 preserveAspectRatio="xMidYMid meet">
<metadata>
Created by potrace 1.10, written by Peter Selinger 2001-2011
</metadata>
<g transform="translate(0.000000,100.000000) scale(0.100000,-0.100000)"
fill="#000000" stroke="none">
<path d="M344 876 c-47 -21 -105 -77 -125 -121 -16 -35 -19 -69 -19 -252 0
-241 7 -272 75 -332 65 -57 84 -61 303 -62 227 -1 265 6 324 59 72 65 78 88
78 322 0 114 -5 222 -11 243 -13 49 -68 110 -123 136 -39 19 -60 21 -257 21
-156 -1 -222 -4 -245 -14z m491 -35 c48 -22 79 -54 100 -103 22 -54 22 -422 0
-476 -21 -49 -52 -81 -100 -103 -35 -16 -67 -19 -245 -19 -222 0 -257 7 -307
61 -47 51 -53 85 -53 299 0 214 6 248 53 299 50 54 85 61 307 61 178 0 210 -3
245 -19z"/>
<path d="M503 536 c4 -61 2 -89 -7 -101 -15 -21 -36 -12 -36 16 0 14 -7 19
-30 19 -25 0 -30 -4 -30 -25 0 -38 33 -65 80 -65 68 0 80 22 80 140 l0 100
-31 0 -32 0 6 -84z"/>
<path d="M635 608 c-47 -25 -59 -72 -26 -102 10 -9 38 -22 62 -29 51 -15 59
-40 15 -45 -19 -2 -32 2 -38 12 -5 9 -22 16 -38 16 -28 0 -29 -1 -18 -30 13
-38 35 -50 93 -50 59 0 101 36 90 78 -9 36 -13 40 -71 60 -28 10 -49 24 -49
32 0 21 39 24 55 5 19 -22 60 -20 60 4 0 45 -85 77 -135 49z"/>
</g>
</svg>
